<svg width="1514" height="653" viewBox="0 0 1514 653" fill="none" xmlns="http://www.w3.org/2000/svg">
<path d="M1140.74 277.895C1142.96 279.694 1146.64 279.198 1149.33 279.74C1174.56 284.789 1196.05 299.386 1212.7 318.545C1213.58 319.564 1217.63 325.402 1218.05 325.503C1220.5 326.036 1219.79 319.096 1219.91 317.765C1220.18 314.726 1220.88 311.155 1221 308.153C1221.3 300.919 1220.13 292.005 1220.95 285.101C1221.02 284.56 1221.2 283.256 1221.78 283.256H1258.15C1259.11 283.256 1259.68 282.696 1260.01 284.615C1260.53 287.562 1260.13 294.125 1260.05 297.458C1259.33 326.972 1255.08 356.946 1248.74 385.689C1260.43 422.272 1265.99 460.6 1265.93 499.111C1266.14 499.79 1265 501.488 1264.56 501.488H1228.72C1228.43 501.488 1227.35 500.166 1227.4 499.606C1227.03 482.348 1226.22 465.126 1224.17 448.004C1223.52 447.536 1221.9 449.381 1221.49 449.877C1214.53 458.369 1209.7 467.632 1201.46 475.848C1150.35 526.789 1067.73 511.366 1035.94 447.674C1003.38 382.43 1034.54 294.529 1109.56 279.667C1111.8 279.226 1115.59 279.813 1117.19 277.922H1140.73L1140.74 277.895ZM1125.66 314.965C1051.04 321.427 1041.82 437.814 1105.45 464.29C1158.24 486.258 1196.22 437.199 1208.32 391.72C1208.63 390.545 1209.8 386.506 1209.75 385.707C1209.6 383.55 1205.67 375.26 1204.5 372.745C1190.17 341.808 1162.99 311.733 1125.67 314.965H1125.66Z" fill="white"/>
<path d="M776.185 506.088C772.136 506.326 766.82 506.326 762.771 506.088C687.604 501.644 644.718 433.72 661.152 362.123C686.612 251.217 849.111 249.528 877.325 358.929C896.009 431.342 852.665 501.571 776.175 506.088H776.185ZM763.872 310.604C669.241 317.37 674.539 477.757 773.439 473.167C870.586 468.651 865.353 303.342 763.872 310.604Z" fill="white"/>
<path d="M1023.75 277.305V314.393C1005.37 309.426 985.99 309.638 969.749 320.424C943.279 338.005 934.438 376.497 933.198 406.443L933.226 506.095H894.885V278.563H933.226V317.533L943.931 301.522C963.276 278.774 994.887 269.786 1023.74 277.305H1023.75Z" fill="white"/>
<path d="M346.208 187.35V220.986C324.797 213.036 298.961 213.798 291.212 239.182C290.615 241.128 288.898 247.71 288.898 249.326V280.777H346.208V312.541H288.898V467.641C288.898 488.967 271.61 506.262 250.273 506.262V312.55H212.271V280.786H249.336C250.016 280.786 250.227 279.263 250.3 278.638C252.449 260.315 248.354 245.966 254.184 226.467C266.689 184.633 308.023 176.113 346.199 187.359L346.208 187.35Z" fill="white"/>
<path d="M406.474 277.601H367.307V506.271H406.474V277.601Z" fill="white"/>
<path d="M382.959 183.026C425.202 177.94 426.552 243.074 381.683 237.015C351.559 232.939 351.788 186.79 382.959 183.026Z" fill="white"/>
<path d="M525.269 278.96C527.968 278.932 530.704 279.07 533.293 279.869C535.387 280.511 537.967 280.337 539.986 280.741C563.334 285.459 585.672 298.927 601.74 316.323C603.163 317.866 609.057 325.972 610.287 325.981C611.224 325.981 611.481 325.412 611.619 324.622C612.17 321.528 611.472 316.296 611.6 312.835C611.903 304.683 611.242 293.639 612.133 286.093C612.197 285.551 612.381 284.248 612.959 284.248H650.4C650.777 284.248 651.117 285.138 651.199 285.588C651.723 288.443 651.291 295.163 651.218 298.44C650.713 320.913 648.61 344.048 644.616 366.181C643.735 371.093 640.035 382.834 640.026 386.662C640.026 388.535 642.504 394.989 643.028 397.495C660.472 480.512 632.019 573.801 538.536 588.471C535.864 588.893 531.953 588.361 529.777 590.142H501.967C499.8 588.682 478.968 587.581 478.968 585.598V550.3C478.968 548.363 484.844 550.777 485.799 550.952C514.683 556.221 543.907 553.476 568.448 536.566C594.542 518.582 608.369 487.553 610.526 456.45C607.606 456.285 606.799 459.939 605.412 461.756C572.488 504.821 518.539 522.539 469.383 493.566C385.686 444.241 401.074 299.808 500.232 280.64C502.077 280.282 505.052 280.695 507.09 280.025C508.467 279.575 509.844 279.125 511.295 279.116L525.251 278.969L525.269 278.96ZM514.169 315.956C437.266 323.796 435.55 455.56 509.33 469.156C555.595 477.684 583.441 441.321 596.91 402.425C597.994 399.294 601.382 389.453 601.271 386.736C601.18 384.321 596.488 373.828 595.138 371.047C580.035 339.806 551.399 312.155 514.169 315.947V315.956Z" fill="white"/>
</svg>
